<svg width="314" height="314" viewBox="0 0 314 314" fill="none" xmlns="http://www.w3.org/2000/svg">
<path fill-rule="evenodd" clip-rule="evenodd" d="M133.6 236.053C129.522 236.053 126.092 236.311 122.715 236.007C112.052 235.043 101.426 233.721 90.9615 231.385C75.7882 228 64.9628 219.079 57.8255 205.369C51.5135 193.243 47.8882 180.412 47.0388 166.773C46.0362 150.68 46.0348 134.637 50.3242 118.936C53.7908 106.248 58.4082 94.0413 66.8882 83.6773C74.9415 73.8333 85.5762 68.524 97.8708 66.3946C110.979 64.1266 124.219 64.3573 137.454 64.9146C139.824 65.016 142.19 65.1227 144.526 65.5667C144.664 65.592 144.786 65.716 144.927 65.8026C145.056 66.6813 144.272 66.7653 143.786 66.9693C130.674 72.4546 121.919 82.3546 115.687 94.7653C108.646 108.792 104.348 123.621 102.863 139.263C101.398 154.719 101.571 170.148 104.368 185.429C107.05 200.073 112.58 213.604 121.778 225.459C124.659 229.175 128.307 232.112 132.151 234.797C132.458 235.011 132.722 235.287 133.6 236.053Z" fill="#4D4D4D"/>
<path fill-rule="evenodd" clip-rule="evenodd" d="M243.725 206.154C241.181 211.432 237.833 216.115 233.137 219.819C226.564 225.003 218.259 223.158 213.432 218.591C209.113 214.503 206.192 209.486 203.927 204.107C198.587 191.436 195.463 178.282 195.591 164.43L197.561 134.26C199.768 123.219 203.452 112.732 209.5 103.163C211.143 100.563 213.139 98.2469 215.368 96.1283C223.035 88.8469 232.115 89.3989 239 97.5069C244.744 104.27 247.752 112.318 250.195 120.67C252.509 128.583 253.144 136.736 253.832 144.886C254.123 148.312 254.427 151.739 254.707 154.955C253.915 172.78 251.489 190.055 243.725 206.154ZM267.001 137.255C266.168 124.054 264.081 111.11 259.564 98.6416C256.465 90.0856 252.436 82.0176 245.847 75.5376C238.627 68.4376 226.9 66.5376 218.661 71.0483C214.595 73.2763 211.073 76.1976 208.033 79.7029C200.153 88.7923 195.453 99.5416 191.797 110.834C187.864 122.979 186.179 135.544 184.828 148.611C184.583 147.863 184.408 147.523 184.363 147.167C184.147 145.5 183.857 143.834 183.797 142.159C183.417 131.7 185.705 121.626 188.455 111.655C191.64 100.107 195.46 88.8176 202.968 79.1749C207.801 72.9656 213.108 67.4629 221.22 65.7349C221.515 65.6723 221.808 65.5549 222.071 65.4056C222.4 65.2176 222.792 64.9656 222.651 64.5336C222.581 64.3149 222.237 64.1109 221.977 64.0376C221.317 63.8509 220.643 63.7069 219.963 63.6083C214.42 62.8016 208.841 62.6589 203.252 62.7056C191.936 62.7949 180.608 62.4709 169.387 64.5296C152.719 67.5882 139.437 75.6776 130.416 90.2763C124.449 99.9323 120.333 110.38 117.416 121.291C112.673 139.022 112.263 157.074 113.639 175.266C114.756 190.06 118.788 203.924 125.641 217.08C133.573 232.308 145.697 241.856 162.509 245.454C171.869 247.456 181.343 248.736 190.836 249.816C199.436 250.794 208.075 251.06 216.681 249.703C231.925 247.3 243.095 238.984 250.988 225.966C256.608 216.699 259.977 206.555 262.387 196.064C266.835 176.692 268.251 157.087 267.001 137.255" fill="#4D4D4D"/>
<path fill-rule="evenodd" clip-rule="evenodd" d="M242.332 110.891C239.977 106.051 237.291 101.407 232.736 98.216C226.675 93.9707 220.395 94.5933 215.024 99.6733C208.473 105.863 204.792 113.681 201.812 121.963C200.957 124.339 201.213 126.557 201.991 128.888C204.872 137.511 206.348 146.4 206.483 155.477C206.643 166.2 205.005 176.669 201.476 186.812C200.352 190.049 200.199 193.227 201.492 196.448C203.553 201.589 206.132 206.479 209.388 210.929C216.149 220.176 225.091 221.088 233.335 213.585C233.843 213.125 234.304 212.608 234.757 212.091C239.86 206.276 242.997 199.415 245.235 192.109C249.008 179.792 250.568 167.157 250.415 153.928C250.464 149.855 250.36 145.42 249.915 140.997C248.861 130.588 246.955 120.388 242.332 110.891Z" fill="#4D4D4D"/>
<path d="M13.3333 300H300V13.3333H13.3333V300ZM313.333 313.333H0V-1.66893e-06H313.333V313.333Z" fill="#ED1C24"/>
</svg>
