<svg width="1086" height="314" viewBox="0 0 1086 314" fill="none" xmlns="http://www.w3.org/2000/svg">
<path d="M385.902 101.426H374.286L374.726 102.224V126.134H365.904V102.224L366.382 101.426H354.728V93.8005H385.902V101.426Z" fill="#4D4D4D"/>
<path d="M411.331 101.426H402.668L403.467 102.224V106.814L402.668 107.614H410.891C414.644 107.614 415.761 106.335 415.761 104.539C415.761 102.783 414.564 101.426 411.331 101.426ZM428.855 126.134H418.955L414.245 117.552C413.167 115.596 411.691 114.678 408.217 114.678H402.668L403.467 115.476V126.134H394.645V93.8005H411.331C419.952 93.8005 424.703 97.4738 424.703 103.86C424.703 107.094 422.428 110.207 419.313 111.644V111.724C420.552 112.203 421.748 113.32 422.507 114.758L428.855 126.134Z" fill="#4D4D4D"/>
<path d="M457.835 111.803L456.997 110.966L455.16 107.333L454.281 104.699H454.203L453.244 107.333L451.448 110.966L450.649 111.803H457.835ZM474.361 126.134H464.7L461.307 119.467L461.827 118.669H446.579L447.097 119.467L443.744 126.134H434.004L450.611 93.8007H457.835L474.361 126.134Z" fill="#4D4D4D"/>
<path d="M507.213 105.378C505.177 102.504 502.344 101.107 498.91 101.107C492.324 101.107 489.25 104.819 489.25 110.128C489.25 115.316 492.125 118.908 498.87 118.908C502.344 118.908 505.217 117.552 507.412 114.798L513.081 120.466C509.369 124.378 504.458 126.572 498.63 126.572C486.736 126.572 480.309 119.788 480.309 110.128C480.309 100.508 486.854 93.4429 498.59 93.4429C504.818 93.4429 509.249 95.3176 513.121 99.5096L507.213 105.378Z" fill="#4D4D4D"/>
<path d="M550.643 101.426H539.027L539.467 102.224V126.134H530.645V102.224L531.123 101.426H519.469V93.8005H550.643V101.426Z" fill="#4D4D4D"/>
<path d="M575.673 101.066C569.485 101.066 566.931 104.658 566.931 110.128C566.931 115.436 569.445 118.87 575.673 118.87C581.9 118.87 584.375 115.436 584.375 110.128C584.375 104.778 581.861 101.066 575.673 101.066ZM575.633 126.534C564.137 126.534 557.989 119.706 557.989 110.128C557.989 100.628 564.097 93.4024 575.633 93.4024C587.249 93.4024 593.316 100.588 593.316 110.128C593.316 119.748 586.971 126.534 575.633 126.534" fill="#4D4D4D"/>
<path d="M648.562 101.426H636.946L637.385 102.224V126.134H628.564V102.224L629.042 101.426H617.386V93.8005H648.562V101.426Z" fill="#4D4D4D"/>
<path d="M673.99 101.426H665.328L666.127 102.224V106.814L665.328 107.614H673.551C677.303 107.614 678.42 106.335 678.42 104.539C678.42 102.783 677.224 101.426 673.99 101.426ZM691.514 126.134H681.615L676.904 117.552C675.827 115.596 674.35 114.678 670.876 114.678H665.328L666.127 115.476V126.134H657.304V93.8005H673.99C682.612 93.8005 687.362 97.4738 687.362 103.86C687.362 107.094 685.087 110.207 681.974 111.644V111.724C683.211 112.203 684.408 113.32 685.167 114.758L691.514 126.134Z" fill="#4D4D4D"/>
<path d="M720.495 111.803L719.656 110.966L717.82 107.333L716.941 104.699H716.861L715.904 107.333L714.108 110.966L713.308 111.803H720.495ZM737.02 126.134H727.36L723.967 119.467L724.485 118.669H709.239L709.756 119.467L706.404 126.134H696.664L713.269 93.8007H720.495L737.02 126.134Z" fill="#4D4D4D"/>
<path d="M777.137 126.134H769.911L757.378 111.765L754.463 107.533H754.385V126.134H745.562V93.8008H752.747L765.442 108.171L768.235 112.162H768.315V93.8008H777.137V126.134Z" fill="#4D4D4D"/>
<path d="M803.364 126.534C797.136 126.534 791.588 124.697 787.078 120.666L793.064 114.678C795.939 117.393 800.45 118.909 804.043 118.909C808.792 118.909 809.831 117.713 809.831 116.673C809.831 116.155 809.551 115.077 805.44 114.159C804.762 113.999 800.211 112.922 799.451 112.762C793.824 111.405 787.796 109.21 787.796 103.222C787.796 97.5539 793.544 93.4019 802.886 93.4019C809.231 93.4019 814.34 95.5179 818.252 99.1499L812.344 105.059C809.95 102.583 806.198 100.947 802.606 100.947C798.335 100.947 796.738 102.025 796.738 102.982C796.738 103.821 797.615 104.259 802.684 105.498C803.364 105.697 807.115 106.574 807.875 106.734C814.82 108.331 818.772 112.005 818.772 116.634C818.772 122.022 813.663 126.534 803.364 126.534Z" fill="#4D4D4D"/>
<path d="M845.996 101.426H836.736L837.533 102.224V107.054L836.736 107.851H845.957C849.269 107.851 850.228 106.495 850.228 104.659C850.228 102.703 849.309 101.426 845.996 101.426ZM845.957 115.515H836.736L837.533 116.315V126.134H828.712V93.8005H845.996C854.339 93.8005 859.169 98.2311 859.169 104.659C859.169 110.846 854.339 115.515 845.957 115.515" fill="#4D4D4D"/>
<path d="M885.195 101.066C879.007 101.066 876.453 104.658 876.453 110.128C876.453 115.436 878.967 118.87 885.195 118.87C891.422 118.87 893.897 115.436 893.897 110.128C893.897 104.778 891.383 101.066 885.195 101.066ZM885.155 126.534C873.659 126.534 867.511 119.706 867.511 110.128C867.511 100.628 873.618 93.4024 885.155 93.4024C896.771 93.4024 902.838 100.588 902.838 110.128C902.838 119.748 896.493 126.534 885.155 126.534" fill="#4D4D4D"/>
<path d="M929.663 101.426H921.001L921.8 102.224V106.814L921.001 107.614H929.224C932.976 107.614 934.093 106.335 934.093 104.539C934.093 102.783 932.897 101.426 929.663 101.426ZM947.187 126.134H937.288L932.577 117.552C931.5 115.596 930.023 114.678 926.549 114.678H921.001L921.8 115.476V126.134H912.977V93.8005H929.663C938.285 93.8005 943.035 97.4738 943.035 103.86C943.035 107.094 940.76 110.207 937.647 111.644V111.724C938.884 112.203 940.081 113.32 940.84 114.758L947.187 126.134Z" fill="#4D4D4D"/>
<path d="M983.712 101.426H972.096L972.535 102.224V126.134H963.713V102.224L964.192 101.426H952.536V93.8005H983.712V101.426Z" fill="#4D4D4D"/>
<path d="M1021.23 126.134H992.454V93.8008H1021.23V101.426H1000.48L1001.28 102.223V105.337L1000.48 106.135H1019.32V113.799H1000.48L1001.28 114.598V117.713L1000.48 118.51H1021.23V126.134Z" fill="#4D4D4D"/>
<path fill-rule="evenodd" clip-rule="evenodd" d="M133.6 236.053C129.522 236.053 126.092 236.311 122.715 236.007C112.052 235.043 101.426 233.721 90.9615 231.385C75.7882 228 64.9628 219.079 57.8255 205.369C51.5135 193.243 47.8882 180.412 47.0388 166.773C46.0362 150.68 46.0348 134.637 50.3242 118.936C53.7908 106.248 58.4082 94.0413 66.8882 83.6773C74.9415 73.8333 85.5762 68.524 97.8708 66.3946C110.979 64.1266 124.219 64.3573 137.454 64.9146C139.824 65.016 142.19 65.1227 144.526 65.5667C144.664 65.592 144.786 65.716 144.927 65.8026C145.056 66.6813 144.272 66.7653 143.786 66.9693C130.674 72.4546 121.919 82.3546 115.687 94.7653C108.646 108.792 104.348 123.621 102.863 139.263C101.398 154.719 101.571 170.148 104.368 185.429C107.05 200.073 112.58 213.604 121.778 225.459C124.659 229.175 128.307 232.112 132.151 234.797C132.458 235.011 132.722 235.287 133.6 236.053Z" fill="#4D4D4D"/>
<path fill-rule="evenodd" clip-rule="evenodd" d="M243.725 206.154C241.181 211.432 237.833 216.115 233.137 219.819C226.564 225.003 218.259 223.158 213.432 218.591C209.113 214.503 206.192 209.486 203.927 204.107C198.587 191.436 195.463 178.282 195.591 164.43L197.561 134.26C199.768 123.219 203.452 112.732 209.5 103.163C211.143 100.563 213.139 98.2469 215.368 96.1282C223.035 88.8469 232.115 89.3989 239 97.5069C244.744 104.27 247.752 112.318 250.195 120.67C252.509 128.583 253.144 136.736 253.832 144.886C254.123 148.312 254.427 151.739 254.707 154.955C253.915 172.78 251.489 190.055 243.725 206.154ZM267.001 137.255C266.168 124.054 264.081 111.11 259.564 98.6415C256.465 90.0856 252.436 82.0176 245.847 75.5376C238.627 68.4376 226.9 66.5376 218.661 71.0482C214.595 73.2762 211.073 76.1976 208.033 79.7029C200.153 88.7922 195.453 99.5416 191.797 110.834C187.864 122.979 186.179 135.544 184.828 148.611C184.583 147.863 184.408 147.523 184.363 147.167C184.147 145.5 183.857 143.834 183.797 142.159C183.417 131.7 185.705 121.626 188.455 111.655C191.64 100.107 195.46 88.8176 202.968 79.1749C207.801 72.9656 213.108 67.4629 221.22 65.7349C221.515 65.6722 221.808 65.5549 222.071 65.4056C222.4 65.2176 222.792 64.9656 222.651 64.5336C222.581 64.3149 222.237 64.1109 221.977 64.0376C221.317 63.8509 220.643 63.7069 219.963 63.6082C214.42 62.8016 208.841 62.6589 203.252 62.7056C191.936 62.7949 180.608 62.4709 169.387 64.5296C152.719 67.5882 139.437 75.6776 130.416 90.2762C124.449 99.9322 120.333 110.38 117.416 121.291C112.673 139.022 112.263 157.074 113.639 175.266C114.756 190.06 118.788 203.924 125.641 217.08C133.573 232.308 145.697 241.856 162.509 245.454C171.869 247.456 181.343 248.736 190.836 249.816C199.436 250.794 208.075 251.06 216.681 249.703C231.925 247.3 243.095 238.984 250.988 225.966C256.608 216.699 259.977 206.555 262.387 196.064C266.835 176.692 268.251 157.087 267.001 137.255" fill="#4D4D4D"/>
<path fill-rule="evenodd" clip-rule="evenodd" d="M242.332 110.891C239.977 106.051 237.291 101.407 232.736 98.216C226.675 93.9707 220.395 94.5933 215.024 99.6733C208.473 105.863 204.792 113.681 201.812 121.963C200.957 124.339 201.213 126.557 201.991 128.888C204.872 137.511 206.348 146.4 206.483 155.477C206.643 166.2 205.005 176.669 201.476 186.812C200.352 190.049 200.199 193.227 201.492 196.448C203.553 201.589 206.132 206.479 209.388 210.929C216.149 220.176 225.091 221.088 233.335 213.585C233.843 213.125 234.304 212.608 234.757 212.091C239.86 206.276 242.997 199.415 245.235 192.109C249.008 179.792 250.568 167.157 250.415 153.928C250.464 149.855 250.36 145.42 249.915 140.997C248.861 130.588 246.955 120.388 242.332 110.891Z" fill="#4D4D4D"/>
<path d="M423.03 223.263H353.95V139.972H423.03V159.614H373.209L375.125 161.67V169.688L373.209 171.746H418.431V191.488H373.209L375.125 193.547V201.566L373.209 203.623H423.03V223.263Z" fill="#ED1C24"/>
<path d="M505.428 223.263H440.851V139.972H462.024V201.566L460.11 203.623H505.428V223.263Z" fill="#ED1C24"/>
<path d="M588.018 159.613H565.789L567.706 161.669V174.111L565.789 176.168H587.922C595.874 176.168 598.173 172.672 598.173 167.943C598.173 162.904 595.97 159.613 588.018 159.613ZM587.922 195.911H565.789L567.706 197.967V223.263H546.532V139.973H588.018C608.042 139.973 619.636 151.388 619.636 167.943C619.636 183.88 608.042 195.911 587.922 195.911" fill="#ED1C24"/>
<path d="M656.715 223.263H635.54V139.972H656.715V223.263Z" fill="#ED1C24"/>
<path d="M712.19 224.29C697.242 224.29 683.925 219.56 673.098 209.174L687.469 193.75C694.367 200.742 705.194 204.65 713.818 204.65C725.219 204.65 727.71 201.565 727.71 198.893C727.71 197.556 727.039 194.778 717.17 192.414C715.542 192.005 704.618 189.226 702.799 188.816C689.29 185.318 674.823 179.664 674.823 164.24C674.823 149.64 688.618 138.945 711.039 138.945C726.274 138.945 738.537 144.393 747.927 153.752L733.746 168.97C727.998 162.596 718.993 158.378 710.369 158.378C700.117 158.378 696.283 161.156 696.283 163.622C696.283 165.782 698.391 166.913 710.559 170.101C712.19 170.616 721.195 172.877 723.014 173.289C739.686 177.402 749.173 186.862 749.173 198.789C749.173 212.672 736.909 224.29 712.19 224.29Z" fill="#ED1C24"/>
<path d="M833.198 159.613H805.318L806.373 161.669V223.263H785.199V161.669L786.349 159.613H758.37V139.973H833.198V159.613Z" fill="#ED1C24"/>
<path d="M885.321 158.687C870.469 158.687 864.339 167.942 864.339 182.029C864.339 195.705 870.373 204.549 885.321 204.549C900.267 204.549 906.208 195.705 906.208 182.029C906.208 168.25 900.172 158.687 885.321 158.687ZM885.225 224.29C857.629 224.29 842.877 206.709 842.877 182.029C842.877 157.555 857.535 138.945 885.225 138.945C913.105 138.945 927.669 157.453 927.669 182.029C927.669 206.81 912.436 224.29 885.225 224.29" fill="#ED1C24"/>
<path d="M1019.84 223.263H1002.5L972.416 186.244L965.421 175.346H965.229V223.263H944.054V139.972H961.301L991.768 176.99L998.476 187.274H998.666V139.972H1019.84V223.263Z" fill="#ED1C24"/>
<path d="M875.215 132.078L874.32 136H903.799L900.82 124.064L875.215 132.078Z" fill="#ED1C24"/>
<path d="M13.3333 300H300V13.3333H13.3333V300ZM313.333 313.333H0V-1.66893e-06H313.333V313.333Z" fill="#ED1C24"/>
<path d="M313.333 300H1072V13.3333H313.333V300ZM1085.33 313.333H300V-1.66893e-06H1085.33V313.333Z" fill="#ED1C24"/>
</svg>
